PathFileType	4	(X/Y/Z)	1_1_16_p1_0-232.trc
DataRate	CameraRate	NumFrames	NumMarkers	Units	OrigDataRate	OrigDataStartFrame	OrigNumFrames
59.0	59.0	4	27	m	59.0	0	233
Frame#	Time	RHip			RKnee			RAnkle			RBigToe			RSmallToe			RHeel			LHip			LKnee			LAnkle			LBigToe			LSmallToe			LHeel			Neck			Head			Nose			RShoulder			RElbow			RWrist			RThumb			RIndex			RPinky			LShoulder			LElbow			LWrist			LThumb			LIndex			LPinky			
		X1	Y1	Z1	X2	Y2	Z2	X3	Y3	Z3	X4	Y4	Z4	X5	Y5	Z5	X6	Y6	Z6	X7	Y7	Z7	X8	Y8	Z8	X9	Y9	Z9	X10	Y10	Z10	X11	Y11	Z11	X12	Y12	Z12	X13	Y13	Z13	X14	Y14	Z14	X15	Y15	Z15	X16	Y16	Z16	X17	Y17	Z17	X18	Y18	Z18	X19	Y19	Z19	X20	Y20	Z20	X21	Y21	Z21	X22	Y22	Z22	X23	Y23	Z23	X24	Y24	Z24	X25	Y25	Z25	X26	Y26	Z26	X27	Y27	Z27	
0	0.0	0.37220002942111774	0.242281493586351	1.116782855894823	0.3756642361526676	0.31889052650171174	1.5225184103579454	0.3617703370963834	0.39703312210825226	1.9485475219896673	0.3430622415641287	0.20480903736698722	1.997303906056971	0.4010080448211793	0.25589208223825805	2.013589511410119	0.3364511567109728	0.45588924598033537	1.9996099879256968	0.13716650704189004	0.2707388395568604	1.1314021170238762	0.16443050668787554	0.33695751105042904	1.521221646389881	0.18913498497148032	0.37446398399819053	1.92937208713618	0.16659290420821557	0.22785996783363163	2.010967852031266	0.12611222736332292	0.22919245560404505	1.9742324979755157	0.20454447658511887	0.44128536017040887	1.984428363442208	0.25830747687583283	0.16663991359831484	0.4660083815270562	0.2605390660506014	0.08894920554044529	0.2168614515869154	0.258089630239956	0.05583021380133262	0.3714017649229	0.4445484683395913	0.16936693686187249	0.5572911166323268	0.46975057282971094	0.17667096037803903	0.8764427527501584	0.3220748223037353	0.09566070190924607	1.0767463207561843	0.25167446363505175	0.07456191943012554	1.143200510919972	0.23620784667313277	0.09123142923727902	1.1592327203336403	0.23999616765921528	0.08136301622676728	1.151325267525437	0.08606582844898848	0.22714789277760863	0.5627890702342795	0.04748767569637314	0.1863527451566132	0.8602491205473543	0.2094306268267771	0.07605724710240404	1.048027251730425	0.30118128404891625	0.022032583292812786	1.0963432789128302	0.298254814538142	0.005639544699505411	1.1146996049922182	0.24519878086291017	0.07869925148096076	1.1657097162780483
1	0.01694915254237288	0.37630931298863557	0.2524094795620341	1.122575017519632	0.3762202007123408	0.317056556757187	1.526430682162127	0.36225224326840333	0.3952012608122371	1.9518492680231814	0.34425074496946095	0.2035829900742872	1.9985280783486732	0.39972657406899753	0.24563833736035337	2.0136167488500036	0.337594625472743	0.4583380469834968	2.005565652332579	0.13781663798367033	0.26799357403677354	1.1384672422818707	0.17006539813420823	0.3223130628848116	1.515831403178158	0.1891736572718962	0.3747600651096313	1.9297287892484662	0.16553014446573358	0.22517183229501547	2.005354000733738	0.12579816229885604	0.22826918605916263	1.977362327296328	0.2103648607495085	0.4466657312864116	1.9955803021671714	0.2576035783400006	0.16866542202757626	0.4630142480064163	0.2605379402142906	0.08745098439873147	0.21378427308236816	0.25806965704765106	0.05590740498903763	0.3713358130919559	0.4440035375804014	0.17142337741729527	0.5544609524176624	0.47323710354160536	0.1665524359867152	0.875149469683371	0.32144304801586504	0.09393041646281308	1.0724666694345741	0.24836062715766138	0.07677350457837766	1.1423278091776181	0.24038410746785374	0.07983306605492917	1.1555333572068176	0.2401303668530083	0.08105273291123011	1.1511125491498204	0.08612798296079412	0.22710351235568757	0.5627368168934694	0.04706076190639211	0.18503130472029802	0.8561415184692528	0.2094465206733166	0.07608673477971802	1.0480837961003282	0.30130886836683485	0.020179337689735368	1.0991276385333724	0.2984042729656432	0.025658669972413933	1.12301275743553	0.24523289467220016	0.0789134655013367	1.1658863060922202
2	0.03389830508474576	0.37258518145170494	0.2408427818887173	1.1203054385229416	0.3757396498994334	0.3175419523008378	1.5260372051591744	0.3618352241431298	0.3973751796690634	1.9486496789902477	0.34338969157396354	0.20315065304317903	1.9969977900658678	0.3983418021538763	0.24430837820262896	2.011974574444316	0.3378462368487072	0.45900067666086464	2.0057440917940403	0.13787269330506716	0.26773704452758973	1.1384518684314302	0.16964898714547944	0.3240624807989253	1.5120020306658628	0.18509346003158225	0.3876617962693616	1.9416732462706623	0.16523098672878506	0.22424136979705286	2.0084211443147746	0.12570042389609906	0.22841730194935503	1.977440294943598	0.21085808820869617	0.44431232908702345	1.999769816695988	0.25763823886627385	0.168679905622893	0.4630293680434712	0.26056891178040714	0.08735716978545602	0.21379981741457774	0.25805151003827453	0.05596312786895097	0.3713087562381626	0.44401427000723775	0.17142300443366515	0.5544791203225489	0.47296286323838715	0.1678200522782786	0.8724585904961673	0.3214671575248543	0.09420755482751801	1.0724704442625719	0.2530406598726751	0.06517296183358383	1.1381191190606914	0.2355210233921441	0.08976670206599198	1.1542821613432739	0.24360959927054587	0.09279206790838142	1.1576052060346804	0.0861061683349399	0.22712504269835826	0.5628004330593193	0.04701094404372088	0.1853094514622918	0.8561376399761748	0.20949412858635705	0.07620884631232348	1.0481551852771178	0.30133393129596986	0.019941507556921177	1.099212468342608	0.29823725644296856	0.02536891574052166	1.1229701159280738	0.24125082165413292	0.09055655783906116	1.1697177789163709
3	0.05084745762711865	0.36447282801909914	0.2535474776304633	1.1242948944770568	0.3747471529462155	0.3157379486211348	1.5209273917020691	0.3622402278884057	0.3953527582592448	1.9518519928818785	0.34332077727831706	0.20347563521784615	1.997178801432659	0.3982319845390796	0.2445209492044282	2.012047702109054	0.33798547599501655	0.4591493102656401	2.00568073824009	0.13817887277406868	0.26635082139285643	1.1417856363516246	0.17474836786896805	0.3078564777959794	1.5095451410026584	0.189111101673115	0.37491994607931284	1.9298425079428294	0.1648409338095518	0.22754057078375192	2.0015215445136247	0.12489583225977353	0.22629401557113518	1.972205473226914	0.21037874401423237	0.4470164382653873	1.9957744094212975	0.2576270585403718	0.16871725387100484	0.4630196444800382	0.26051529804697143	0.08736159713057433	0.21377489891851412	0.2580278096319924	0.056083891363912106	0.3712898643319178	0.4445444554398501	0.169420956660857	0.5574524377720248	0.47294022985212847	0.167775393045169	0.8725291149319621	0.3214842656912843	0.09416853342292825	1.0725110097236064	0.2533321966917172	0.06544643374722141	1.1383914644604542	0.2356073833707475	0.09000598868077088	1.1546264377037727	0.24003049999393272	0.08140824119290328	1.1512632041081765	0.08609381981714834	0.22707458637654862	0.5628359305328126	0.047441770102397716	0.18689848187822983	0.8600754163683714	0.209565755743206	0.07620475694249788	1.048109012582419	0.3013043546967515	0.0196345285605131	1.0990052430059287	0.298514145055676	0.026772104987314714	1.119932302170985	0.24077915598767793	0.08933984054128362	1.1660104743653383
